<?xml version="1.0" encoding="utf-8"?>

<!DOCTYPE svg PUBLIC "-//W3C//DTD SVG 1.1//EN" "http://www.w3.org/Graphics/SVG/1.1/DTD/svg11.dtd">
<!-- Uploaded to: SVG Repo, www.svgrepo.com, Generator: SVG Repo Mixer Tools -->
<svg height="800px" width="800px" version="1.1" id="_x32_" xmlns="http://www.w3.org/2000/svg" xmlns:xlink="http://www.w3.org/1999/xlink" 
	 viewBox="0 0 512 512"  xml:space="preserve">
<style type="text/css">
	.st0{fill:#000000;}
</style>
<g>
	<path class="st0" d="M489.518,201.801C484.932,88.594,392.72,0,279.307,0C166.021,0,73.349,89.983,69.024,202.237
		c-14.52,28.421-40.694,81.771-41.892,84.215c-6.784,13.536-7.038,29.476-0.588,43.479c6.427,13.965,18.678,24.129,33.61,27.865
		l9.585,2.404c4.65,20.986,11.639,52.62,13.83,62.673c8.252,37.973,28.199,54.176,66.696,54.176c5.331,0,10.759-0.318,16.043-0.834
		v3.285V512h32.499h190.645h32.499v-32.499v-66.719c0-21.74,6.712-42.822,17.947-56.389
		C486.162,300.559,492.462,241.623,489.518,201.801z M414.872,335.66c-18.772,22.661-25.421,52.962-25.421,77.122v66.719H198.806
		v-42.155c0,0-26.295,7.205-48.542,7.205c-22.232,0-29.833-5.094-34.943-28.596c-3.38-15.519-18.194-82.406-18.194-82.406
		l-29.079-7.276c-5.292-1.324-9.704-4.975-11.989-9.942c-2.285-4.958-2.198-10.687,0.246-15.567c0,0,31.801-64.823,45.059-90.356
		c0.016-98.258,79.677-177.911,177.943-177.911c95.997,0,174.189,76.034,177.76,171.158
		C459.963,241.362,452.624,290.102,414.872,335.66z"/>
</g>
</svg>